<?xml version="1.0" encoding="UTF-8" standalone="no"?>
<!-- Created with Inkscape (http://www.inkscape.org/) -->

<svg
   xmlns:dc="http://purl.org/dc/elements/1.1/"
   xmlns:cc="http://creativecommons.org/ns#"
   xmlns:rdf="http://www.w3.org/1999/02/22-rdf-syntax-ns#"
   xmlns:svg="http://www.w3.org/2000/svg"
   xmlns="http://www.w3.org/2000/svg"
   xmlns:sodipodi="http://sodipodi.sourceforge.net/DTD/sodipodi-0.dtd"
   xmlns:inkscape="http://www.inkscape.org/namespaces/inkscape"
   version="1.0"
   width="853.33331"
   height="229.33333"
   id="svg2"
   inkscape:version="0.92.1 r15371"
   sodipodi:docname="Sinus_wave.svg">
  <metadata
     id="metadata45">
    <rdf:RDF>
      <cc:Work
         rdf:about="">
        <dc:format>image/svg+xml</dc:format>
        <dc:type
           rdf:resource="http://purl.org/dc/dcmitype/StillImage" />
        <dc:title />
      </cc:Work>
    </rdf:RDF>
  </metadata>
  <sodipodi:namedview
     pagecolor="#ffffff"
     bordercolor="#666666"
     borderopacity="1"
     objecttolerance="10"
     gridtolerance="10"
     guidetolerance="10"
     inkscape:pageopacity="0"
     inkscape:pageshadow="2"
     inkscape:window-width="1920"
     inkscape:window-height="1017"
     id="namedview43"
     showgrid="false"
     inkscape:zoom="0.70710678"
     inkscape:cx="362.16986"
     inkscape:cy="35.116236"
     inkscape:window-x="-8"
     inkscape:window-y="-8"
     inkscape:window-maximized="1"
     inkscape:current-layer="svg2" />
  <defs
     id="defs5">
    <marker
       refX="0"
       refY="0"
       orient="auto"
       style="overflow:visible"
       id="Arrow2Mend">
      <path
         d="M -2.3798962,-2.5815905 4.6126653,-0.01024849 -2.3798966,2.561093 c 1.117119,-1.518119 1.1106821,-3.5951692 4e-7,-5.1426835 z"
         style="font-size:12px;fill-rule:evenodd;stroke-width:0.40000001;stroke-linejoin:round"
         id="path5820"
         inkscape:connector-curvature="0" />
    </marker>
    <marker
       refX="0"
       refY="0"
       orient="auto"
       style="overflow:visible"
       id="Arrow1Mstart">
      <path
         d="M 0,0 2.1333333,-2.1333333 -5.3333333,0 2.1333333,2.1333333 Z"
         style="fill-rule:evenodd;stroke:#000000;stroke-width:0.42666668pt;marker-start:none"
         id="path5828"
         inkscape:connector-curvature="0" />
    </marker>
  </defs>
  <path
     style="fill:none;stroke:#000000;stroke-width:0.53333336;stroke-linecap:butt;stroke-linejoin:miter;stroke-miterlimit:4;stroke-dasharray:none;stroke-opacity:1"
     d="m -313.61813,116.94626 c 0,0 7.82131,-17.178999 11.99284,-25.643223 3.49581,-7.093151 6.68559,-14.382212 10.9203,-21.060591 3.32786,-5.248237 6.8015,-10.543822 11.31032,-14.820415 2.96941,-2.816469 6.33327,-5.420495 10.14028,-6.922694 1.59058,-0.627626 3.36765,-0.939364 5.07014,-0.780022 3.50022,0.327598 7.05718,1.505688 9.94528,3.510098 7.03219,4.880496 11.74031,12.566348 16.47797,19.695552 5.68804,8.559342 9.62585,18.16476 14.1379,27.398264 7.01017,14.345731 13.20827,29.076321 20.08555,43.486231 3.26175,6.83433 6.28393,13.80403 10.04279,20.37807 2.52804,4.4214 5.33397,8.69491 8.38523,12.77285 2.19645,2.9355 4.17837,6.19392 7.1177,8.38524 4.01349,2.99212 8.74612,6.25342 13.74788,6.04517 5.57975,-0.2323 10.54109,-4.29389 14.72292,-7.99523 5.61868,-4.9731 9.05106,-11.99122 13.06537,-18.3305 2.52993,-3.99519 4.78009,-8.16725 6.92269,-12.38285 2.99808,-5.89878 5.50496,-12.03466 8.28773,-18.03801 2.09737,-4.5247 7.35536,-15.66747 7.35536,-15.66747"
     id="path3102"
     inkscape:connector-curvature="0"
     sodipodi:nodetypes="csssssssssssssssssc" />
  <path
     style="fill:none;stroke:#000000;stroke-width:0.53333336;stroke-linecap:butt;stroke-linejoin:miter;stroke-miterlimit:4;stroke-dasharray:none;stroke-opacity:1"
     d="m -113.88832,116.97555 c 0,0 7.82131,-17.178999 11.99284,-25.643223 3.495809,-7.09315 6.68559,-14.382212 10.920299,-21.06059 3.327862,-5.248237 6.801504,-10.543822 11.310326,-14.820415 2.969408,-2.81647 6.333269,-5.420495 10.140277,-6.922695 1.590581,-0.627625 3.367648,-0.939363 5.070144,-0.780021 3.500213,0.327598 7.057173,1.505687 9.94528,3.510098 7.032181,4.880496 11.740309,12.566348 16.477963,19.695552 5.688042,8.559342 9.625856,18.164759 14.137898,27.398263 7.010176,14.345731 13.208278,29.076321 20.0855574,43.486231 3.26174932,6.83433 6.2839254,13.80403 10.042784,20.37807 2.5280427,4.4214 5.3339736,8.69491 8.3852376,12.77285 2.196448,2.9355 4.178368,6.19392 7.117696,8.38524 4.013493,2.99212 8.746123,6.25342 13.747883,6.04518 5.579744,-0.23231 10.541088,-4.2939 14.722912,-7.99524 5.618688,-4.9731 9.051061,-11.99122 13.065376,-18.3305 2.52993,-3.99519 4.780085,-8.16725 6.922688,-12.38285 2.99808,-5.89877 5.50496,-12.03466 8.287733,-18.03801 2.097365,-4.5247 7.35536,-15.66747 7.35536,-15.66747"
     id="path3102-3"
     inkscape:connector-curvature="0"
     sodipodi:nodetypes="csssssssssssssssssc" />
  <path
     style="fill:none;stroke:#000000;stroke-width:0.53333336;stroke-linecap:butt;stroke-linejoin:miter;stroke-miterlimit:4;stroke-dasharray:none;stroke-opacity:1"
     d="m 85.848275,116.99505 c 0,0 7.821312,-17.179 11.992843,-25.643224 3.495812,-7.093148 6.685592,-14.382214 10.920302,-21.060593 3.32786,-5.248235 6.8015,-10.543819 11.31032,-14.820416 2.96941,-2.816464 6.33327,-5.42049 10.14028,-6.922689 1.59058,-0.627626 3.36765,-0.939363 5.07015,-0.780021 3.50021,0.327598 7.05717,1.505687 9.94528,3.510098 7.03218,4.880495 11.7403,12.566351 16.47796,19.695556 5.68804,8.559339 9.62585,18.164753 14.1379,27.398257 7.01017,14.345732 13.20827,29.076322 20.08555,43.486232 3.26175,6.83433 6.28393,13.80403 10.04279,20.37807 2.52804,4.4214 5.33397,8.69491 8.38524,12.77285 2.19644,2.9355 4.17836,6.19392 7.11769,8.38524 4.01349,2.99212 8.74612,6.25342 13.74788,6.04517 5.57975,-0.23231 10.54109,-4.29389 14.72292,-7.99523 5.61868,-4.9731 9.05106,-11.99122 13.06537,-18.3305 2.52993,-3.99519 4.78009,-8.16725 6.92269,-12.38285 2.99808,-5.89878 5.50496,-12.03466 8.28773,-18.03801 2.09737,-4.5247 7.35536,-15.66748 7.35536,-15.66748"
     id="path3102-5"
     inkscape:connector-curvature="0"
     sodipodi:nodetypes="csssssssssssssssssc" />
  <path
     style="fill:none;stroke:#000000;stroke-width:0.53333336;stroke-linecap:butt;stroke-linejoin:miter;stroke-miterlimit:4;stroke-dasharray:none;stroke-opacity:1"
     d="m 285.57809,117.02434 c 0,0 7.82131,-17.178999 11.99284,-25.643223 3.49581,-7.093148 6.68559,-14.382215 10.9203,-21.060593 3.32786,-5.248235 6.80151,-10.543819 11.31033,-14.820416 2.96941,-2.816464 6.33327,-5.42049 10.14027,-6.922689 1.59059,-0.627626 3.36765,-0.939364 5.07015,-0.780022 3.50021,0.327598 7.05717,1.505688 9.94528,3.510098 7.03218,4.880495 11.74031,12.566351 16.47796,19.695557 5.68804,8.559338 9.62586,18.164753 14.1379,27.398257 7.01018,14.345731 13.20828,29.076321 20.08556,43.486231 3.26175,6.83433 6.28392,13.80403 10.04278,20.37807 2.52804,4.4214 5.33397,8.69491 8.38524,12.77285 2.19645,2.9355 4.17837,6.19392 7.11769,8.38524 4.0135,2.99212 8.74613,6.25342 13.74789,6.04517 5.57974,-0.2323 10.54109,-4.29389 14.72291,-7.99523 5.61869,-4.9731 9.05106,-11.99122 13.06538,-18.3305 2.52993,-3.99519 4.78008,-8.16725 6.92268,-12.38285 2.99808,-5.89878 5.50496,-12.03466 8.28774,-18.03801 2.09736,-4.5247 7.35536,-15.66747 7.35536,-15.66747"
     id="path3102-3-0"
     inkscape:connector-curvature="0"
     sodipodi:nodetypes="csssssssssssssssssc" />
  <path
     style="fill:none;stroke:#000000;stroke-width:0.53333336;stroke-linecap:butt;stroke-linejoin:miter;stroke-miterlimit:4;stroke-dasharray:none;stroke-opacity:1"
     d="m 485.34423,116.95777 c 0,0 7.82132,-17.179 11.99285,-25.643224 3.49581,-7.093154 6.68559,-14.382221 10.9203,-21.060599 3.32786,-5.248235 6.8015,-10.543819 11.31032,-14.820416 2.96941,-2.81647 6.33327,-5.420491 10.14028,-6.922688 1.59058,-0.627627 3.36765,-0.93936 5.07014,-0.780022 3.50022,0.327595 7.05718,1.505686 9.94528,3.510102 7.03218,4.88049 11.74031,12.566346 16.47797,19.695552 5.68804,8.559338 9.62585,18.164759 14.13789,27.398263 7.01018,14.345732 13.20828,29.076322 20.08556,43.486232 3.26175,6.83433 6.28393,13.80403 10.04279,20.37807 2.52804,4.4214 5.33397,8.69491 8.38523,12.77285 2.19645,2.9355 4.17837,6.19392 7.11771,8.38524 4.01355,2.99212 8.74613,6.25342 13.74784,6.04517 5.57984,-0.23231 10.54112,-4.29389 14.72299,-7.99523 5.61866,-4.9731 9.05098,-11.99122 13.06538,-18.3305 2.52992,-3.99519 4.78006,-8.16725 6.92267,-12.38285 2.99808,-5.89878 5.50496,-12.03466 8.28768,-18.03801 2.09739,-4.5247 7.35541,-15.66748 7.35541,-15.66748"
     id="path3102-4"
     inkscape:connector-curvature="0"
     sodipodi:nodetypes="csssssssssssssssssc" />
  <path
     style="fill:none;stroke:#000000;stroke-width:0.53333336;stroke-linecap:butt;stroke-linejoin:miter;stroke-miterlimit:4;stroke-dasharray:none;stroke-opacity:1"
     d="m 685.07402,116.98706 c 0,0 7.82133,-17.178999 11.99285,-25.643223 3.49589,-7.093154 6.68565,-14.382221 10.92032,-21.0606 3.32789,-5.248234 6.80149,-10.543818 11.31029,-14.820416 2.9695,-2.816469 6.33334,-5.42049 10.14038,-6.922688 1.5905,-0.627626 3.36757,-0.93936 5.07008,-0.780021 3.50026,0.327595 7.05717,1.505685 9.94528,3.510101 7.03221,4.880491 11.74037,12.566347 16.47797,19.695552 5.688,8.559339 9.62581,18.16476 14.13792,27.398264 7.01013,14.345731 13.20821,29.076321 20.08555,43.486231 3.26176,6.83433 6.28394,13.80403 10.04277,20.37807 2.528,4.4214 5.33397,8.69491 8.38528,12.77285 2.19637,2.9355 4.17835,6.19392 7.11765,8.38524 4.01355,2.99212 8.74614,6.25342 13.74784,6.04517 5.57984,-0.2323 10.54112,-4.29389 14.72299,-7.99523 5.61867,-4.9731 9.05099,-11.99122 13.06539,-18.3305 2.52992,-3.99519 4.78005,-8.16725 6.92266,-12.38285 2.99808,-5.89878 5.50496,-12.03466 8.28768,-18.03801 2.09739,-4.5247 7.35542,-15.66747 7.35542,-15.66747"
     id="path3102-3-3"
     inkscape:connector-curvature="0"
     sodipodi:nodetypes="csssssssssssssssssc" />
  <path
     style="fill:none;stroke:#000000;stroke-width:0.53333336;stroke-linecap:butt;stroke-linejoin:miter;stroke-miterlimit:4;stroke-dasharray:none;stroke-opacity:1"
     d="m 884.81066,117.00656 c 0,0 7.82133,-17.179001 11.99285,-25.643225 3.49579,-7.093154 6.68555,-14.38222 10.92032,-21.060599 3.32779,-5.248235 6.80149,-10.543819 11.31029,-14.820416 2.96939,-2.816459 6.33323,-5.420491 10.14027,-6.922688 1.59061,-0.627627 3.36768,-0.93936 5.07019,-0.780021 3.50016,0.327594 7.05717,1.505685 9.94528,3.510101 7.0321,4.880491 11.74026,12.566347 16.47797,19.695552 5.688,8.559339 9.62581,18.164759 14.13781,27.398263 7.01024,14.345733 13.20832,29.076323 20.08566,43.486233 3.26165,6.83433 6.2838,13.80403 10.0428,20.37807 2.528,4.4214 5.3339,8.69491 8.3851,12.77285 2.1965,2.9355 4.1784,6.19392 7.1178,8.38524 4.0134,2.99212 8.7461,6.25342 13.7478,6.04517 5.5798,-0.23231 10.5412,-4.2939 14.7229,-7.99523 5.6188,-4.9731 9.0511,-11.99122 13.0654,-18.33051 2.5299,-3.99518 4.7802,-8.16724 6.9227,-12.38284 2.9981,-5.89878 5.5049,-12.03466 8.2878,-18.03801 2.0974,-4.5247 7.3553,-15.66748 7.3553,-15.66748"
     id="path3102-5-8"
     inkscape:connector-curvature="0"
     sodipodi:nodetypes="csssssssssssssssssc" />
  <path
     style="fill:none;stroke:#000000;stroke-width:0.53333336;stroke-linecap:butt;stroke-linejoin:miter;stroke-miterlimit:4;stroke-dasharray:none;stroke-opacity:1"
     d="m 1084.5405,117.03585 c 0,0 7.8213,-17.179 11.9928,-25.643224 3.4958,-7.093154 6.6856,-14.382221 10.9204,-21.060599 3.3277,-5.248235 6.8014,-10.543819 11.3102,-14.820416 2.9694,-2.816459 6.3333,-5.420491 10.1403,-6.922688 1.5906,-0.627627 3.3677,-0.93936 5.0702,-0.780022 3.5002,0.327595 7.0572,1.505686 9.9453,3.510102 7.0321,4.88049 11.7402,12.566346 16.478,19.695552 5.688,8.559338 9.6258,18.164759 14.1378,27.398263 7.0102,14.345732 13.2083,29.076322 20.0856,43.486232 3.2617,6.83433 6.2839,13.80403 10.0428,20.37807 2.528,4.4214 5.334,8.69491 8.3852,12.77285 2.1964,2.9355 4.1783,6.19392 7.1177,8.38524 4.0135,2.99212 8.7462,6.25342 13.7479,6.04517 5.5797,-0.23231 10.5411,-4.29389 14.7228,-7.99523 5.6188,-4.9731 9.0511,-11.99122 13.0654,-18.3305 2.53,-3.99519 4.7802,-8.16725 6.9227,-12.38285 2.9981,-5.89878 5.505,-12.03466 8.2878,-18.03801 2.0974,-4.5247 7.3553,-15.66748 7.3553,-15.66748"
     id="path3102-3-0-0"
     inkscape:connector-curvature="0"
     sodipodi:nodetypes="csssssssssssssssssc" />
  <path
     style="fill:none;stroke:#000000;stroke-width:0.53333336;stroke-linecap:butt;stroke-linejoin:miter;stroke-miterlimit:4;stroke-dasharray:none;stroke-opacity:1"
     d="m 1284.311,116.97568 c 0,0 7.8214,-17.179001 11.9929,-25.643225 3.4958,-7.093153 6.6855,-14.382219 10.9203,-21.060598 3.3279,-5.248235 6.8015,-10.543819 11.3103,-14.820405 2.9694,-2.81647 6.3333,-5.420502 10.1403,-6.922699 1.5906,-0.627627 3.3677,-0.93936 5.0702,-0.780021 3.5001,0.327594 7.0571,1.505685 9.9452,3.510101 7.0323,4.880491 11.7403,12.566347 16.478,19.695552 5.688,8.559339 9.6258,18.164758 14.1379,27.398262 7.0102,14.345733 13.2082,29.076323 20.0856,43.486233 3.2617,6.83433 6.2838,13.80403 10.0428,20.37807 2.528,4.4214 5.3339,8.69491 8.3851,12.77285 2.1965,2.9355 4.1785,6.19392 7.1178,8.38524 4.0134,2.99212 8.7461,6.25342 13.7478,6.04517 5.5798,-0.23231 10.5411,-4.2939 14.7229,-7.99523 5.6188,-4.9731 9.0511,-11.99122 13.0654,-18.33051 2.5299,-3.99518 4.7802,-8.16724 6.9228,-12.38284 2.998,-5.89878 5.5049,-12.03466 8.2876,-18.03801 2.0974,-4.5247 7.3555,-15.66748 7.3555,-15.66748"
     id="path3102-53"
     inkscape:connector-curvature="0"
     sodipodi:nodetypes="csssssssssssssssssc" />
  <path
     style="fill:none;stroke:#000000;stroke-width:0.53333336;stroke-linecap:butt;stroke-linejoin:miter;stroke-miterlimit:4;stroke-dasharray:none;stroke-opacity:1"
     d="m 1484.0409,117.00497 c 0,0 7.8213,-17.179 11.9928,-25.643224 3.4958,-7.093153 6.6856,-14.38222 10.9203,-21.060598 3.3279,-5.248235 6.8015,-10.543819 11.3103,-14.820406 2.9694,-2.816469 6.3334,-5.420501 10.1403,-6.922698 1.5906,-0.627627 3.3677,-0.93936 5.0702,-0.780022 3.5001,0.327595 7.0571,1.505686 9.9453,3.510102 7.0322,4.88049 11.7402,12.566346 16.4779,19.695552 5.688,8.559338 9.6258,18.164758 14.1379,27.398262 7.0102,14.345732 13.2083,29.076322 20.0856,43.486232 3.2618,6.83433 6.2838,13.80403 10.0428,20.37807 2.528,4.4214 5.3339,8.69491 8.3851,12.77285 2.1965,2.9355 4.1785,6.19392 7.1178,8.38524 4.0134,2.99212 8.7461,6.25342 13.7478,6.04517 5.5798,-0.23231 10.5412,-4.29389 14.7229,-7.99523 5.6188,-4.9731 9.0511,-11.99122 13.0654,-18.3305 2.5299,-3.99519 4.7802,-8.16725 6.9228,-12.38285 2.9981,-5.89878 5.5049,-12.03466 8.2877,-18.03801 2.0973,-4.5247 7.3554,-15.66748 7.3554,-15.66748"
     id="path3102-3-4"
     inkscape:connector-curvature="0"
     sodipodi:nodetypes="csssssssssssssssssc" />
  <path
     style="fill:none;stroke:#000000;stroke-width:0.53333336;stroke-linecap:butt;stroke-linejoin:miter;stroke-miterlimit:4;stroke-dasharray:none;stroke-opacity:1"
     d="m 1683.7775,117.02447 c 0,0 7.8213,-17.179001 11.9928,-25.643225 3.4958,-7.093153 6.6856,-14.38222 10.9203,-21.060599 3.3279,-5.248234 6.8016,-10.543818 11.3104,-14.820416 2.9693,-2.816458 6.3332,-5.42049 10.1402,-6.922688 1.5906,-0.627626 3.3677,-0.93936 5.0701,-0.780021 3.5003,0.327595 7.0572,1.505685 9.9453,3.510101 7.0322,4.880491 11.7404,12.566347 16.478,19.695552 5.6881,8.559339 9.6259,18.164759 14.1379,27.398263 7.0102,14.345733 13.2083,29.076323 20.0855,43.486233 3.2618,6.83432 6.284,13.80403 10.0428,20.37807 2.5281,4.4214 5.334,8.69491 8.3853,12.77285 2.1965,2.9355 4.1783,6.19392 7.1176,8.38524 4.0136,2.99212 8.7462,6.25342 13.748,6.04517 5.5797,-0.23231 10.541,-4.2939 14.7229,-7.99523 5.6186,-4.9731 9.0511,-11.99122 13.0653,-18.33051 2.53,-3.99519 4.7801,-8.16724 6.9227,-12.38284 2.9981,-5.89878 5.505,-12.03466 8.2878,-18.03801 2.0973,-4.5247 7.3553,-15.66748 7.3553,-15.66748"
     id="path3102-5-3"
     inkscape:connector-curvature="0"
     sodipodi:nodetypes="csssssssssssssssssc" />
  <path
     style="fill:none;stroke:#000000;stroke-width:0.53333336;stroke-linecap:butt;stroke-linejoin:miter;stroke-miterlimit:4;stroke-dasharray:none;stroke-opacity:1"
     d="m 1883.5073,117.05376 c 0,0 7.8213,-17.179001 11.9929,-25.643225 3.4957,-7.093153 6.6855,-14.382219 10.9202,-21.060598 3.3279,-5.248235 6.8016,-10.543819 11.3104,-14.820416 2.9694,-2.816459 6.3332,-5.420491 10.1402,-6.922688 1.5907,-0.627627 3.3677,-0.93936 5.0701,-0.780021 3.5003,0.327594 7.0572,1.505685 9.9453,3.510101 7.0322,4.880491 11.7404,12.566347 16.478,19.695552 5.6881,8.559339 9.6259,18.164758 14.1379,27.398262 7.0102,14.345733 13.2083,29.076323 20.0855,43.486233 3.2618,6.83433 6.284,13.80403 10.0428,20.37807 2.5281,4.4214 5.334,8.69491 8.3853,12.77285 2.1965,2.9355 4.1783,6.19392 7.1176,8.38524 4.0136,2.99212 8.7462,6.25342 13.748,6.04517 5.5797,-0.23231 10.541,-4.2939 14.7229,-7.99523 5.6186,-4.9731 9.0511,-11.99122 13.0654,-18.33051 2.5299,-3.99518 4.78,-8.16724 6.9226,-12.38284 2.9981,-5.89878 5.505,-12.03466 8.2878,-18.03801 2.0973,-4.5247 7.3553,-15.66748 7.3553,-15.66748"
     id="path3102-3-0-5"
     inkscape:connector-curvature="0"
     sodipodi:nodetypes="csssssssssssssssssc" />
  <path
     style="fill:none;stroke:#000000;stroke-width:0.53333336;stroke-linecap:butt;stroke-linejoin:miter;stroke-miterlimit:4;stroke-dasharray:none;stroke-opacity:1"
     d="m 2083.2734,116.98719 c 0,0 7.8213,-17.179001 11.9928,-25.643225 3.4958,-7.093153 6.6857,-14.38222 10.9204,-21.060599 3.3279,-5.248234 6.8015,-10.543818 11.3103,-14.820416 2.9694,-2.816469 6.3333,-5.42049 10.1402,-6.922688 1.5906,-0.627626 3.3677,-0.93936 5.0702,-0.780021 3.5003,0.327595 7.0572,1.505685 9.9453,3.510101 7.0322,4.880491 11.7403,12.566347 16.478,19.695552 5.688,8.559339 9.6258,18.164759 14.1379,27.398263 7.0101,14.345733 13.2082,29.076323 20.0855,43.486233 3.2618,6.83432 6.284,13.80403 10.0428,20.37807 2.528,4.4214 5.334,8.69491 8.3853,12.77285 2.1964,2.9355 4.1783,6.19392 7.1176,8.38524 4.0136,2.99212 8.7462,6.25342 13.7479,6.04517 5.5798,-0.23231 10.5411,-4.2939 14.723,-7.99523 5.6186,-4.9731 9.0509,-11.99122 13.0653,-18.33051 2.53,-3.99519 4.7801,-8.16724 6.9227,-12.38284 2.9981,-5.89878 5.505,-12.03466 8.2877,-18.03801 2.0974,-4.5247 7.3554,-15.66748 7.3554,-15.66748"
     id="path3102-4-1"
     inkscape:connector-curvature="0"
     sodipodi:nodetypes="csssssssssssssssssc" />
  <path
     style="fill:none;stroke:#000000;stroke-width:0.53333336;stroke-linecap:butt;stroke-linejoin:miter;stroke-miterlimit:4;stroke-dasharray:none;stroke-opacity:1"
     d="m 2283.0032,117.01648 c 0,0 7.8213,-17.179001 11.9929,-25.643225 3.4958,-7.093153 6.6856,-14.382219 10.9203,-21.060598 3.3279,-5.248235 6.8015,-10.543819 11.3103,-14.820416 2.9695,-2.816469 6.3333,-5.420491 10.1403,-6.922688 1.5905,-0.627627 3.3676,-0.93936 5.0701,-0.780021 3.5003,0.327594 7.0572,1.505685 9.9453,3.510101 7.0322,4.880491 11.7404,12.566347 16.478,19.695552 5.688,8.559339 9.6258,18.164758 14.1379,27.398262 7.0101,14.345733 13.2082,29.076323 20.0855,43.486233 3.2618,6.83433 6.284,13.80403 10.0428,20.37807 2.528,4.4214 5.334,8.69491 8.3853,12.77285 2.1964,2.9355 4.1783,6.19392 7.1176,8.38524 4.0136,2.99212 8.7462,6.25342 13.7479,6.04517 5.5798,-0.23231 10.5411,-4.2939 14.723,-7.99523 5.6186,-4.9731 9.051,-11.99122 13.0654,-18.33051 2.5299,-3.99518 4.78,-8.16724 6.9226,-12.38284 2.9981,-5.89878 5.505,-12.03466 8.2877,-18.03801 2.0974,-4.5247 7.3554,-15.66748 7.3554,-15.66748"
     id="path3102-3-3-2"
     inkscape:connector-curvature="0"
     sodipodi:nodetypes="csssssssssssssssssc" />
  <path
     style="fill:none;stroke:#000000;stroke-width:0.53333336;stroke-linecap:butt;stroke-linejoin:miter;stroke-miterlimit:4;stroke-dasharray:none;stroke-opacity:1"
     d="m 2482.7398,117.03598 c 0,0 7.8214,-17.179002 11.9929,-25.643226 3.4958,-7.093153 6.6855,-14.38222 10.9203,-21.060598 3.3278,-5.248235 6.8015,-10.543819 11.3103,-14.820416 2.9694,-2.816459 6.3332,-5.420491 10.1403,-6.922688 1.5906,-0.627627 3.3677,-0.93936 5.0702,-0.780022 3.5001,0.327595 7.0571,1.505686 9.9452,3.510102 7.0321,4.88049 11.7403,12.566346 16.478,19.695552 5.688,8.559338 9.6258,18.164758 14.1378,27.398262 7.0103,14.345734 13.2083,29.076324 20.0857,43.486234 3.2616,6.83432 6.2838,13.80403 10.0428,20.37807 2.528,4.4214 5.3339,8.69491 8.3851,12.77285 2.1965,2.9355 4.1784,6.19392 7.1178,8.38524 4.0134,2.99212 8.7461,6.25342 13.7478,6.04517 5.5798,-0.23231 10.5411,-4.2939 14.7229,-7.99523 5.6188,-4.9731 9.0511,-11.99122 13.0654,-18.33051 2.5299,-3.99519 4.7802,-8.16724 6.9227,-12.38284 2.998,-5.89878 5.5049,-12.03466 8.2877,-18.03801 2.0974,-4.5247 7.3554,-15.66748 7.3554,-15.66748"
     id="path3102-5-8-7"
     inkscape:connector-curvature="0"
     sodipodi:nodetypes="csssssssssssssssssc" />
  <path
     style="fill:none;stroke:#000000;stroke-width:0.53333336;stroke-linecap:butt;stroke-linejoin:miter;stroke-miterlimit:4;stroke-dasharray:none;stroke-opacity:1"
     d="m 2682.4697,117.06527 c 0,0 7.8213,-17.179001 11.9928,-25.643225 3.4958,-7.093153 6.6856,-14.38222 10.9203,-21.060599 3.3278,-5.248234 6.8015,-10.543818 11.3103,-14.820416 2.9694,-2.816458 6.3332,-5.42049 10.1403,-6.922688 1.5906,-0.627626 3.3677,-0.93936 5.0702,-0.780021 3.5001,0.327595 7.0571,1.505685 9.9453,3.510101 7.0321,4.880491 11.7402,12.566347 16.4779,19.695552 5.688,8.559339 9.6258,18.164759 14.1378,27.398263 7.0103,14.345733 13.2084,29.076323 20.0857,43.486233 3.2616,6.83432 6.2838,13.80403 10.0428,20.37807 2.528,4.4214 5.3339,8.69491 8.3851,12.77285 2.1965,2.9355 4.1784,6.19392 7.1178,8.38524 4.0134,2.99212 8.7461,6.25342 13.7478,6.04517 5.5798,-0.23231 10.5412,-4.2939 14.7229,-7.99523 5.6188,-4.9731 9.0511,-11.99122 13.0654,-18.33051 2.5299,-3.99519 4.7802,-8.16724 6.9227,-12.38284 2.9981,-5.89878 5.5049,-12.03466 8.2878,-18.03801 2.0973,-4.5247 7.3553,-15.66748 7.3553,-15.66748"
     id="path3102-3-0-0-2"
     inkscape:connector-curvature="0"
     sodipodi:nodetypes="csssssssssssssssssc" />
</svg>
